<?xml version="1.0" standalone="no"?>
<!DOCTYPE svg PUBLIC "-//W3C//DTD SVG 20010904//EN"
 "http://www.w3.org/TR/2001/REC-SVG-20010904/DTD/svg10.dtd">
<svg version="1.0" xmlns="http://www.w3.org/2000/svg"
 width="612.000000pt" height="612.000000pt" viewBox="0 0 612.000000 612.000000"
 preserveAspectRatio="xMidYMid meet">
<metadata>
Created by potrace 1.14, written by Peter Selinger 2001-2017
</metadata>
<g transform="translate(0.000000,612.000000) scale(0.100000,-0.100000)"
fill="#000000" stroke="none">
<path d="M2789 5095 c-692 -99 -1274 -521 -1574 -1140 -103 -212 -169 -441
-196 -675 -16 -146 -6 -433 20 -576 92 -496 346 -928 731 -1240 350 -285 821
-454 1262 -454 l118 0 0 980 0 980 981 0 982 0 -6 168 c-18 515 -216 979 -578
1353 -303 313 -685 513 -1134 595 -124 22 -477 28 -606 9z m41 -184 c0 -6 -4
-13 -10 -16 -14 -9 -187 -219 -252 -306 -76 -101 -183 -268 -238 -368 l-45
-82 -37 6 c-89 13 -487 150 -538 185 -12 9 2 27 77 99 242 232 548 391 898
466 124 27 145 29 145 16z m556 -6 c345 -60 695 -235 946 -474 48 -46 88 -87
88 -91 0 -19 -365 -154 -504 -186 -51 -12 -81 -15 -83 -8 -10 29 -173 292
-236 380 -80 112 -253 328 -286 358 -19 17 -28 36 -17 36 2 0 43 -7 92 -15z
m-416 -489 l0 -375 -72 5 c-231 16 -428 42 -428 57 0 13 107 189 178 292 85
123 304 395 318 395 2 0 4 -168 4 -374z m371 152 c50 -64 113 -147 139 -185
59 -85 170 -269 170 -282 0 -13 -237 -44 -417 -54 l-83 -5 0 376 1 377 50 -55
c27 -30 91 -107 140 -172z m-1680 -412 c106 -48 247 -99 390 -141 68 -20 129
-38 136 -40 7 -3 -2 -38 -28 -105 -93 -236 -152 -484 -161 -672 l-2 -48 -404
0 -404 0 7 78 c21 236 104 515 212 711 57 104 156 251 169 251 6 0 44 -15 85
-34z m2950 -49 c175 -257 286 -570 314 -880 l7 -77 -403 2 -404 3 -7 90 c-15
182 -72 409 -157 625 -26 68 -35 103 -28 105 7 2 32 9 57 15 131 34 416 136
498 180 21 10 44 19 52 20 8 0 40 -37 71 -83z m-2115 -197 c97 -16 333 -40
407 -40 l67 0 0 -360 0 -360 -400 0 c-246 0 -400 4 -400 9 0 42 34 255 54 336
28 114 84 279 127 373 27 60 30 63 56 58 16 -3 55 -10 89 -16z m1274 -43 c40
-88 96 -254 125 -366 19 -77 55 -298 55 -342 0 -5 -154 -9 -400 -9 l-400 0 0
360 0 360 63 0 c88 0 268 18 394 39 59 10 114 19 121 20 7 0 26 -27 42 -62z
m-1772 -944 c9 -204 95 -545 184 -733 7 -14 14 -28 15 -32 2 -4 -29 -16 -69
-28 -177 -51 -414 -137 -500 -181 -20 -10 -43 -19 -51 -19 -19 0 -131 175
-198 310 -96 193 -166 441 -184 653 l-7 77 404 0 404 0 2 -47z m972 -313 l0
-360 -72 0 c-84 0 -303 -23 -432 -46 -48 -8 -89 -14 -90 -12 -23 41 -83 198
-116 300 -37 114 -89 385 -90 471 0 4 180 7 400 7 l400 0 0 -360z m0 -907 l0
-378 -38 40 c-110 118 -261 319 -374 499 -83 131 -99 166 -80 166 5 0 58 7
118 16 60 8 163 19 229 23 66 4 126 9 133 10 9 1 12 -80 12 -376z m-675 258
c9 -28 129 -224 203 -331 84 -120 188 -254 270 -348 36 -40 62 -75 59 -78 -10
-11 -230 38 -347 76 -205 67 -421 183 -585 315 -67 53 -195 176 -195 186 0 23
497 197 567 199 13 0 24 -8 28 -19z"/>
<path d="M4088 2771 c-206 -66 -333 -266 -307 -483 9 -78 38 -147 91 -216 22
-30 38 -55 36 -56 -1 -1 -16 -8 -33 -15 -54 -23 -189 -118 -246 -173 -190
-183 -299 -451 -299 -734 l0 -84 890 0 890 0 0 94 c0 278 -106 534 -301 726
-67 65 -173 140 -235 166 -22 9 -41 18 -42 19 -2 2 14 28 37 57 106 141 125
307 52 463 -92 198 -327 302 -533 236z m250 -187 c139 -69 189 -231 114 -369
-98 -180 -359 -181 -462 -2 -103 181 22 397 230 397 51 0 78 -6 118 -26z m17
-699 c140 -30 289 -122 384 -237 91 -110 174 -303 183 -423 3 -36 1 -40 -19
-39 -13 0 -332 1 -709 2 l-686 2 7 43 c31 182 123 361 244 476 167 158 382
221 596 176z"/>
</g>
</svg>
